<svg xmlns="http://www.w3.org/2000/svg" viewBox="0 0 1200 720" font-family="Trebuchet MS, Arial, sans-serif">
  <defs>
    <!-- Gradient for the dark background -->
    <linearGradient id="bgGrad" x1="0%" y1="0%" x2="100%" y2="100%">
      <stop offset="0%" style="stop-color:#1a2836"/>
      <stop offset="100%" style="stop-color:#243344"/>
    </linearGradient>
    <!-- Gold accent gradient -->
    <linearGradient id="goldGrad" x1="0%" y1="0%" x2="100%" y2="0%">
      <stop offset="0%" style="stop-color:#D4891A"/>
      <stop offset="100%" style="stop-color:#e6a040"/>
    </linearGradient>
    <!-- Highway gradient (darker) -->
    <linearGradient id="hwGrad" x1="0%" y1="0%" x2="100%" y2="0%">
      <stop offset="0%" style="stop-color:#1a2530"/>
      <stop offset="100%" style="stop-color:#2a3a4a"/>
    </linearGradient>
    <!-- Glow filter for accent elements -->
    <filter id="glow">
      <feGaussianBlur stdDeviation="3" result="coloredBlur"/>
      <feMerge>
        <feMergeNode in="coloredBlur"/>
        <feMergeNode in="SourceGraphic"/>
      </feMerge>
    </filter>
    <!-- Car shape (simplified top-down race car) -->
    <g id="car-gold">
      <rect x="-8" y="-14" width="16" height="28" rx="5" fill="#D4891A" stroke="#e6a040" stroke-width="1"/>
      <rect x="-5" y="-10" width="10" height="6" rx="2" fill="#e6a040" opacity="0.6"/>
      <rect x="-5" y="4" width="10" height="4" rx="1" fill="#e6a040" opacity="0.4"/>
    </g>
    <g id="car-blue">
      <rect x="-8" y="-14" width="16" height="28" rx="5" fill="#4a8ab5" stroke="#6ab0d8" stroke-width="1"/>
      <rect x="-5" y="-10" width="10" height="6" rx="2" fill="#6ab0d8" opacity="0.6"/>
      <rect x="-5" y="4" width="10" height="4" rx="1" fill="#6ab0d8" opacity="0.4"/>
    </g>
    <g id="car-teal">
      <rect x="-8" y="-14" width="16" height="28" rx="5" fill="#3a8a7a" stroke="#5ab89a" stroke-width="1"/>
      <rect x="-5" y="-10" width="10" height="6" rx="2" fill="#5ab89a" opacity="0.6"/>
      <rect x="-5" y="4" width="10" height="4" rx="1" fill="#5ab89a" opacity="0.4"/>
    </g>
    <!-- Arrow marker -->
    <marker id="arrowGold" markerWidth="8" markerHeight="8" refX="6" refY="4" orient="auto">
      <path d="M0,0 L8,4 L0,8 Z" fill="#D4891A"/>
    </marker>
    <marker id="arrowWhite" markerWidth="8" markerHeight="8" refX="6" refY="4" orient="auto">
      <path d="M0,0 L8,4 L0,8 Z" fill="#8FAAB8"/>
    </marker>
  </defs>

  <!-- Background -->
  <rect width="1200" height="720" fill="url(#bgGrad)"/>

  <!-- Title bar -->
  <rect x="0" y="0" width="1200" height="4" fill="url(#goldGrad)"/>

  <!-- Title -->
  <text x="600" y="48" text-anchor="middle" fill="#FFFFFF" font-size="26" font-weight="bold" letter-spacing="2">THE CAR FACTORY — FROM SINGLE TRACK TO HIGHWAY</text>
  <text x="600" y="72" text-anchor="middle" fill="#8FAAB8" font-size="13" letter-spacing="1">HOW GPU ACCELERATION WORKS FOR FINANCIAL CONTRACT EVALUATION</text>

  <!-- ========================================= -->
  <!-- SECTION 1: Single Track (left) -->
  <!-- ========================================= -->
  <g transform="translate(0, 0)">
    <!-- Section label -->
    <rect x="30" y="95" width="180" height="28" rx="4" fill="#243344" stroke="#D4891A" stroke-width="1.5"/>
    <text x="120" y="114" text-anchor="middle" fill="#D4891A" font-size="12" font-weight="bold">SINGLE TRACK</text>

    <!-- Single lane road -->
    <rect x="65" y="135" width="110" height="320" rx="6" fill="#1a2530" stroke="#3a4f60" stroke-width="1"/>
    <!-- Lane dashes -->
    <line x1="120" y1="145" x2="120" y2="165" stroke="#3a4f60" stroke-width="1.5" stroke-dasharray="4,8"/>
    <line x1="120" y1="175" x2="120" y2="195" stroke="#3a4f60" stroke-width="1.5" stroke-dasharray="4,8"/>
    <line x1="120" y1="205" x2="120" y2="225" stroke="#3a4f60" stroke-width="1.5" stroke-dasharray="4,8"/>
    <line x1="120" y1="235" x2="120" y2="255" stroke="#3a4f60" stroke-width="1.5" stroke-dasharray="4,8"/>
    <line x1="120" y1="265" x2="120" y2="285" stroke="#3a4f60" stroke-width="1.5" stroke-dasharray="4,8"/>
    <line x1="120" y1="295" x2="120" y2="315" stroke="#3a4f60" stroke-width="1.5" stroke-dasharray="4,8"/>
    <line x1="120" y1="325" x2="120" y2="345" stroke="#3a4f60" stroke-width="1.5" stroke-dasharray="4,8"/>
    <line x1="120" y1="355" x2="120" y2="375" stroke="#3a4f60" stroke-width="1.5" stroke-dasharray="4,8"/>
    <line x1="120" y1="385" x2="120" y2="405" stroke="#3a4f60" stroke-width="1.5" stroke-dasharray="4,8"/>
    <line x1="120" y1="415" x2="120" y2="435" stroke="#3a4f60" stroke-width="1.5" stroke-dasharray="4,8"/>

    <!-- One car driving -->
    <use href="#car-gold" x="120" y="200"/>

    <!-- Waiting cars (parked, dimmed) -->
    <g opacity="0.3">
      <use href="#car-gold" x="120" y="280"/>
      <use href="#car-gold" x="120" y="330"/>
      <use href="#car-gold" x="120" y="380"/>
      <use href="#car-gold" x="120" y="430"/>
    </g>

    <!-- Label -->
    <text x="120" y="478" text-anchor="middle" fill="#8FAAB8" font-size="11">1 contract at a time</text>
    <text x="120" y="494" text-anchor="middle" fill="#FFFFFF" font-size="13" font-weight="bold">Reference Engine</text>
  </g>

  <!-- Arrow 1→2 -->
  <line x1="195" y1="300" x2="230" y2="300" stroke="#D4891A" stroke-width="2" marker-end="url(#arrowGold)"/>

  <!-- ========================================= -->
  <!-- SECTION 2: 8-Track CPU (middle-left) -->
  <!-- ========================================= -->
  <g transform="translate(0, 0)">
    <!-- Section label -->
    <rect x="240" y="95" width="180" height="28" rx="4" fill="#243344" stroke="#D4891A" stroke-width="1.5"/>
    <text x="330" y="114" text-anchor="middle" fill="#D4891A" font-size="12" font-weight="bold">8-TRACK FACILITY</text>

    <!-- 8 narrow lanes -->
    <rect x="255" y="135" width="150" height="320" rx="6" fill="#1a2530" stroke="#3a4f60" stroke-width="1"/>

    <!-- Lane separators and cars -->
    <g>
      <!-- 8 lanes, each ~16px wide, starting at x=262 -->
      <use href="#car-gold" x="275" y="180"/>
      <use href="#car-blue" x="293" y="210"/>
      <use href="#car-teal" x="311" y="165"/>
      <use href="#car-gold" x="329" y="240"/>
      <use href="#car-blue" x="347" y="195"/>
      <use href="#car-teal" x="365" y="225"/>
      <use href="#car-gold" x="383" y="175"/>
      <use href="#car-blue" x="392" y="250"/>

      <!-- Lane lines -->
      <line x1="284" y1="140" x2="284" y2="450" stroke="#3a4f60" stroke-width="0.5" stroke-dasharray="3,6"/>
      <line x1="302" y1="140" x2="302" y2="450" stroke="#3a4f60" stroke-width="0.5" stroke-dasharray="3,6"/>
      <line x1="320" y1="140" x2="320" y2="450" stroke="#3a4f60" stroke-width="0.5" stroke-dasharray="3,6"/>
      <line x1="338" y1="140" x2="338" y2="450" stroke="#3a4f60" stroke-width="0.5" stroke-dasharray="3,6"/>
      <line x1="356" y1="140" x2="356" y2="450" stroke="#3a4f60" stroke-width="0.5" stroke-dasharray="3,6"/>
      <line x1="374" y1="140" x2="374" y2="450" stroke="#3a4f60" stroke-width="0.5" stroke-dasharray="3,6"/>
      <line x1="392" y1="140" x2="392" y2="450" stroke="#3a4f60" stroke-width="0.5" stroke-dasharray="3,6"/>
    </g>

    <!-- Label -->
    <text x="330" y="478" text-anchor="middle" fill="#8FAAB8" font-size="11">8 contracts in parallel</text>
    <text x="330" y="494" text-anchor="middle" fill="#FFFFFF" font-size="13" font-weight="bold">CPU Engine</text>
  </g>

  <!-- Arrow 2→3 -->
  <line x1="418" y1="300" x2="453" y2="300" stroke="#D4891A" stroke-width="2" marker-end="url(#arrowGold)"/>

  <!-- ========================================= -->
  <!-- SECTION 3: GPU Highway (centre-right) -->
  <!-- ========================================= -->
  <g transform="translate(0, 0)">
    <!-- Section label -->
    <rect x="460" y="95" width="410" height="28" rx="4" fill="#243344" stroke="#D4891A" stroke-width="1.5"/>
    <text x="665" y="114" text-anchor="middle" fill="#D4891A" font-size="12" font-weight="bold">GPU HIGHWAY — 1,000+ LANES</text>

    <!-- Wide highway -->
    <rect x="465" y="135" width="400" height="320" rx="8" fill="#1a2530" stroke="#3a4f60" stroke-width="1.5"/>

    <!-- Many lane lines -->
    <g stroke="#3a4f60" stroke-width="0.3" stroke-dasharray="2,5">
      <line x1="480" y1="140" x2="480" y2="450"/>
      <line x1="492" y1="140" x2="492" y2="450"/>
      <line x1="504" y1="140" x2="504" y2="450"/>
      <line x1="516" y1="140" x2="516" y2="450"/>
      <line x1="528" y1="140" x2="528" y2="450"/>
      <line x1="540" y1="140" x2="540" y2="450"/>
      <line x1="552" y1="140" x2="552" y2="450"/>
      <line x1="564" y1="140" x2="564" y2="450"/>
      <line x1="576" y1="140" x2="576" y2="450"/>
      <line x1="588" y1="140" x2="588" y2="450"/>
      <line x1="600" y1="140" x2="600" y2="450"/>
      <line x1="612" y1="140" x2="612" y2="450"/>
      <line x1="624" y1="140" x2="624" y2="450"/>
      <line x1="636" y1="140" x2="636" y2="450"/>
      <line x1="648" y1="140" x2="648" y2="450"/>
      <line x1="660" y1="140" x2="660" y2="450"/>
      <line x1="672" y1="140" x2="672" y2="450"/>
      <line x1="684" y1="140" x2="684" y2="450"/>
      <line x1="696" y1="140" x2="696" y2="450"/>
      <line x1="708" y1="140" x2="708" y2="450"/>
      <line x1="720" y1="140" x2="720" y2="450"/>
      <line x1="732" y1="140" x2="732" y2="450"/>
      <line x1="744" y1="140" x2="744" y2="450"/>
      <line x1="756" y1="140" x2="756" y2="450"/>
      <line x1="768" y1="140" x2="768" y2="450"/>
      <line x1="780" y1="140" x2="780" y2="450"/>
      <line x1="792" y1="140" x2="792" y2="450"/>
      <line x1="804" y1="140" x2="804" y2="450"/>
      <line x1="816" y1="140" x2="816" y2="450"/>
      <line x1="828" y1="140" x2="828" y2="450"/>
      <line x1="840" y1="140" x2="840" y2="450"/>
      <line x1="852" y1="140" x2="852" y2="450"/>
    </g>

    <!-- Many cars driving at different positions (staggered for motion effect) -->
    <g>
      <use href="#car-gold" x="486" y="175"/>
      <use href="#car-blue" x="498" y="210"/>
      <use href="#car-teal" x="510" y="160"/>
      <use href="#car-gold" x="522" y="230"/>
      <use href="#car-blue" x="534" y="185"/>
      <use href="#car-teal" x="546" y="250"/>
      <use href="#car-gold" x="558" y="170"/>
      <use href="#car-blue" x="570" y="220"/>
      <use href="#car-teal" x="582" y="195"/>
      <use href="#car-gold" x="594" y="240"/>
      <use href="#car-blue" x="606" y="165"/>
      <use href="#car-teal" x="618" y="205"/>
      <use href="#car-gold" x="630" y="245"/>
      <use href="#car-blue" x="642" y="180"/>
      <use href="#car-teal" x="654" y="225"/>
      <use href="#car-gold" x="666" y="190"/>
      <use href="#car-blue" x="678" y="235"/>
      <use href="#car-teal" x="690" y="170"/>
      <use href="#car-gold" x="702" y="215"/>
      <use href="#car-blue" x="714" y="250"/>
      <use href="#car-teal" x="726" y="175"/>
      <use href="#car-gold" x="738" y="200"/>
      <use href="#car-blue" x="750" y="240"/>
      <use href="#car-teal" x="762" y="185"/>
      <use href="#car-gold" x="774" y="225"/>
      <use href="#car-blue" x="786" y="160"/>
      <use href="#car-teal" x="798" y="210"/>
      <use href="#car-gold" x="810" y="245"/>
      <use href="#car-blue" x="822" y="180"/>
      <use href="#car-teal" x="834" y="230"/>
      <use href="#car-gold" x="846" y="195"/>
    </g>

    <!-- Looping arrow (bottom of highway, showing cars going back) -->
    <path d="M 665 450 Q 665 465 650 465 L 520 465 Q 505 465 505 450" fill="none" stroke="#D4891A" stroke-width="1.5" stroke-dasharray="4,3" marker-end="url(#arrowGold)"/>
    <text x="585" y="480" text-anchor="middle" fill="#D4891A" font-size="9" font-style="italic">loop: next scenario</text>

    <!-- Label -->
    <text x="665" y="506" text-anchor="middle" fill="#8FAAB8" font-size="11">1,000+ contracts simultaneously</text>
    <text x="665" y="522" text-anchor="middle" fill="#FFFFFF" font-size="13" font-weight="bold">GPU Engine</text>
  </g>

  <!-- ========================================= -->
  <!-- SECTION 4: On-Ramp &amp; Off-Ramp (right) -->
  <!-- ========================================= -->
  <g transform="translate(0, 0)">
    <!-- On-Ramp label -->
    <rect x="895" y="95" width="130" height="28" rx="4" fill="#243344" stroke="#D4891A" stroke-width="1.5"/>
    <text x="960" y="114" text-anchor="middle" fill="#D4891A" font-size="12" font-weight="bold">ON-RAMP</text>

    <!-- On-ramp funnel -->
    <path d="M 895 150 L 960 150 L 960 220 L 895 200 Z" fill="#243344" stroke="#D4891A" stroke-width="1.5"/>

    <!-- Large contracts entering -->
    <rect x="900" y="155" width="22" height="18" rx="3" fill="#4a8ab5" opacity="0.5" stroke="#6ab0d8" stroke-width="0.5"/>
    <rect x="925" y="158" width="22" height="18" rx="3" fill="#4a8ab5" opacity="0.5" stroke="#6ab0d8" stroke-width="0.5"/>

    <!-- Small compact contracts exiting -->
    <rect x="935" y="195" width="12" height="10" rx="2" fill="#D4891A"/>
    <rect x="948" y="197" width="12" height="10" rx="2" fill="#D4891A"/>

    <!-- Arrow into highway -->
    <path d="M 960 220 L 865 250" stroke="#D4891A" stroke-width="1.5" marker-end="url(#arrowGold)"/>

    <text x="960" y="240" text-anchor="middle" fill="#8FAAB8" font-size="9">strip down</text>
    <text x="960" y="252" text-anchor="middle" fill="#8FAAB8" font-size="9">&amp; compact</text>

    <!-- Off-Ramp / Sinks -->
    <rect x="895" y="305" width="130" height="28" rx="4" fill="#243344" stroke="#D4891A" stroke-width="1.5"/>
    <text x="960" y="324" text-anchor="middle" fill="#D4891A" font-size="12" font-weight="bold">SINKS</text>

    <!-- Sink box -->
    <rect x="905" y="345" width="110" height="70" rx="6" fill="#243344" stroke="#D4891A" stroke-width="1"/>

    <!-- Many data points going in -->
    <g fill="#4a8ab5" opacity="0.4">
      <circle cx="915" cy="355" r="2"/>
      <circle cx="922" cy="358" r="2"/>
      <circle cx="929" cy="353" r="2"/>
      <circle cx="936" cy="360" r="2"/>
      <circle cx="943" cy="355" r="2"/>
      <circle cx="950" cy="358" r="2"/>
      <circle cx="957" cy="354" r="2"/>
      <circle cx="964" cy="359" r="2"/>
      <circle cx="971" cy="355" r="2"/>
      <circle cx="978" cy="358" r="2"/>
      <circle cx="985" cy="353" r="2"/>
      <circle cx="992" cy="360" r="2"/>
      <circle cx="999" cy="355" r="2"/>
      <circle cx="1006" cy="358" r="2"/>
    </g>

    <!-- Aggregation symbol -->
    <text x="960" y="385" text-anchor="middle" fill="#8FAAB8" font-size="10">avg | spread | risk</text>

    <!-- Few summary points coming out -->
    <g fill="#D4891A" filter="url(#glow)">
      <circle cx="935" cy="405" r="3.5"/>
      <circle cx="950" cy="405" r="3.5"/>
      <circle cx="965" cy="405" r="3.5"/>
      <circle cx="980" cy="405" r="3.5"/>
    </g>

    <!-- Arrow from highway to sink -->
    <path d="M 865 370 L 900 370" stroke="#8FAAB8" stroke-width="1" marker-end="url(#arrowWhite)"/>

    <!-- Off-ramp label -->
    <rect x="895" y="425" width="130" height="28" rx="4" fill="#243344" stroke="#D4891A" stroke-width="1.5"/>
    <text x="960" y="444" text-anchor="middle" fill="#D4891A" font-size="12" font-weight="bold">OFF-RAMP</text>

    <!-- Arrow down to report -->
    <line x1="960" y1="455" x2="960" y2="485" stroke="#D4891A" stroke-width="1.5" marker-end="url(#arrowGold)"/>

    <!-- Report icon -->
    <rect x="930" y="490" width="60" height="40" rx="4" fill="#243344" stroke="#8FAAB8" stroke-width="1"/>
    <line x1="940" y1="502" x2="980" y2="502" stroke="#8FAAB8" stroke-width="0.8"/>
    <line x1="940" y1="510" x2="975" y2="510" stroke="#8FAAB8" stroke-width="0.8"/>
    <line x1="940" y1="518" x2="970" y2="518" stroke="#8FAAB8" stroke-width="0.8"/>
    <text x="960" y="545" text-anchor="middle" fill="#FFFFFF" font-size="11" font-weight="bold">Report</text>
  </g>

  <!-- ========================================= -->
  <!-- BOTTOM: Mapping legend -->
  <!-- ========================================= -->

  <!-- Divider line -->
  <line x1="30" y1="575" x2="1170" y2="575" stroke="#D4891A" stroke-width="1" opacity="0.4"/>

  <!-- Legend title -->
  <text x="600" y="600" text-anchor="middle" fill="#FFFFFF" font-size="14" font-weight="bold" letter-spacing="1">FROM CARS TO CONTRACTS</text>

  <!-- Legend items (3 columns) -->
  <g fill="#8FAAB8" font-size="11">
    <!-- Column 1 -->
    <use href="#car-gold" x="60" y="632"/>
    <text x="80" y="637" fill="#FFFFFF">= 1 Financial Contract</text>
    <rect x="45" y="654" width="18" height="12" rx="2" fill="#1a2530" stroke="#3a4f60" stroke-width="0.5"/>
    <text x="80" y="665" fill="#FFFFFF">= Test Track / Highway Lane</text>

    <!-- Column 2 -->
    <text x="310" y="637" fill="#D4891A" font-size="18">&#9729;</text>
    <text x="330" y="637" fill="#FFFFFF">Road Conditions = Market Scenarios</text>
    <circle cx="318" cy="662" r="5" fill="#D4891A" filter="url(#glow)"/>
    <text x="330" y="665" fill="#FFFFFF">Sinks = GPU-side aggregation</text>

    <!-- Column 3 -->
    <text x="650" y="637" fill="#FFFFFF">1 Track = Java Reference (sequential)</text>
    <text x="650" y="665" fill="#FFFFFF">8 Tracks = CPU Engine (8 cores parallel)</text>
    <text x="650" y="693" fill="#FFFFFF">1,000 Lanes = GPU Engine (massively parallel)</text>
  </g>

  <!-- Decorative bottom accent -->
  <rect x="0" y="716" width="1200" height="4" fill="url(#goldGrad)"/>
</svg>