<svg xmlns="http://www.w3.org/2000/svg" viewBox="0 0 1300 600" font-family="Trebuchet MS, Arial, sans-serif">
  <defs>
    <linearGradient id="bgGrad" x1="0%" y1="0%" x2="100%" y2="100%">
      <stop offset="0%" style="stop-color:#1a2836"/>
      <stop offset="100%" style="stop-color:#243344"/>
    </linearGradient>
    <linearGradient id="goldGrad" x1="0%" y1="0%" x2="100%" y2="0%">
      <stop offset="0%" style="stop-color:#D4891A"/>
      <stop offset="100%" style="stop-color:#e6a040"/>
    </linearGradient>
    <linearGradient id="stageGold" x1="0%" y1="0%" x2="0%" y2="100%">
      <stop offset="0%" style="stop-color:#3a2e10"/>
      <stop offset="100%" style="stop-color:#251e08"/>
    </linearGradient>
    <linearGradient id="stageBlue" x1="0%" y1="0%" x2="0%" y2="100%">
      <stop offset="0%" style="stop-color:#1e3050"/>
      <stop offset="100%" style="stop-color:#142038"/>
    </linearGradient>
    <linearGradient id="stageTeal" x1="0%" y1="0%" x2="0%" y2="100%">
      <stop offset="0%" style="stop-color:#1a3a30"/>
      <stop offset="100%" style="stop-color:#112520"/>
    </linearGradient>
    <linearGradient id="stageRed" x1="0%" y1="0%" x2="0%" y2="100%">
      <stop offset="0%" style="stop-color:#3a1818"/>
      <stop offset="100%" style="stop-color:#280e0e"/>
    </linearGradient>
    <linearGradient id="stageGreen" x1="0%" y1="0%" x2="0%" y2="100%">
      <stop offset="0%" style="stop-color:#1a3a20"/>
      <stop offset="100%" style="stop-color:#0e2514"/>
    </linearGradient>
    <filter id="glow">
      <feGaussianBlur stdDeviation="3" result="coloredBlur"/>
      <feMerge><feMergeNode in="coloredBlur"/><feMergeNode in="SourceGraphic"/></feMerge>
    </filter>
    <filter id="glowSoft">
      <feGaussianBlur stdDeviation="1.5" result="coloredBlur"/>
      <feMerge><feMergeNode in="coloredBlur"/><feMergeNode in="SourceGraphic"/></feMerge>
    </filter>
    <marker id="arrowGold" markerWidth="8" markerHeight="8" refX="6" refY="4" orient="auto">
      <path d="M0,1 L7,4 L0,7 Z" fill="#D4891A"/>
    </marker>
    <marker id="arrowTeal" markerWidth="8" markerHeight="8" refX="6" refY="4" orient="auto">
      <path d="M0,1 L7,4 L0,7 Z" fill="#3aaa8a"/>
    </marker>
    <marker id="arrowRed" markerWidth="8" markerHeight="8" refX="6" refY="4" orient="auto">
      <path d="M0,1 L7,4 L0,7 Z" fill="#e04040"/>
    </marker>
    <marker id="arrowBlue" markerWidth="8" markerHeight="8" refX="6" refY="4" orient="auto">
      <path d="M0,1 L7,4 L0,7 Z" fill="#5ab8d8"/>
    </marker>
  </defs>

  <!-- Background -->
  <rect width="1300" height="600" fill="url(#bgGrad)"/>
  <rect x="0" y="0" width="1300" height="4" fill="url(#goldGrad)"/>
  <rect x="0" y="596" width="1300" height="4" fill="url(#goldGrad)"/>

  <!-- Title -->
  <text x="650" y="36" text-anchor="middle" fill="#FFFFFF" font-size="20" font-weight="bold" letter-spacing="2">EVALUATION PIPELINE — BIG-O COMPLEXITY PER STAGE</text>
  <text x="650" y="56" text-anchor="middle" fill="#8FAAB8" font-size="11" letter-spacing="1">C = contracts · S = scenarios · T = time-steps · R = risk factors · E = events/contract · G = GPU threads · P = CPU cores</text>

  <!-- ═══════════════════════════════════════════════════════════════════
       ROW LABELS
       ═══════════════════════════════════════════════════════════════════ -->
  <rect x="8" y="112" width="56" height="104" rx="4" fill="#1e2530" stroke="#D4891A" stroke-width="1.2"/>
  <text x="36" y="151" text-anchor="middle" fill="#D4891A" font-size="9" font-weight="bold">COMPUTE</text>
  <text x="36" y="163" text-anchor="middle" fill="#D4891A" font-size="9" font-weight="bold">PATH</text>
  <text x="36" y="177" text-anchor="middle" fill="#6a8a98" font-size="8">no D2H</text>
  <text x="36" y="188" text-anchor="middle" fill="#6a8a98" font-size="8">sink on GPU</text>

  <rect x="8" y="320" width="56" height="104" rx="4" fill="#1e2530" stroke="#5ab8d8" stroke-width="1.2"/>
  <text x="36" y="359" text-anchor="middle" fill="#5ab8d8" font-size="9" font-weight="bold">FULL</text>
  <text x="36" y="371" text-anchor="middle" fill="#5ab8d8" font-size="9" font-weight="bold">PATH</text>
  <text x="36" y="385" text-anchor="middle" fill="#6a8a98" font-size="8">incl. D2H</text>
  <text x="36" y="396" text-anchor="middle" fill="#6a8a98" font-size="8">CPU sink</text>

  <!-- ═══════════════════════════════════════════════════════════════════
       SCENARIO GEN (shared, above both rows)
       ═══════════════════════════════════════════════════════════════════ -->
  <rect x="70" y="65" width="140" height="72" rx="6" fill="url(#stageGold)" stroke="#D4891A" stroke-width="1.5"/>
  <text x="140" y="86" text-anchor="middle" fill="#D4891A" font-size="10" font-weight="bold">SCENARIO GEN</text>
  <text x="140" y="100" text-anchor="middle" fill="#e6c070" font-size="12" font-weight="bold">O(S · T · R)</text>
  <text x="140" y="115" text-anchor="middle" fill="#8FAAB8" font-size="8">Vasicek / flat / HJM</text>
  <text x="140" y="128" text-anchor="middle" fill="#5a7a8a" font-size="8">parallel per path</text>
  <!-- arrow down to both rows -->
  <line x1="140" y1="137" x2="140" y2="160" stroke="#D4891A" stroke-width="1.5" stroke-dasharray="4,2" marker-end="url(#arrowGold)"/>
  <line x1="140" y1="137" x2="140" y2="370" stroke="#D4891A" stroke-width="1" stroke-dasharray="3,3" opacity="0.4"/>

  <!-- ═══════════════════════════════════════════════════════════════════
       COMPUTE PATH ROW  y=112 to 216  (centre y=164)
       ═══════════════════════════════════════════════════════════════════ -->

  <!-- CONTRACTS BATCH -->
  <rect x="70" y="112" width="140" height="104" rx="6" fill="#1e2e40" stroke="#3a4f60" stroke-width="1.5"/>
  <text x="140" y="140" text-anchor="middle" fill="#8FAAB8" font-size="10" font-weight="bold">PORTFOLIO</text>
  <text x="140" y="154" text-anchor="middle" fill="#8FAAB8" font-size="9">C contracts</text>
  <text x="140" y="174" text-anchor="middle" fill="#e6c070" font-size="12" font-weight="bold">O(C)</text>
  <text x="140" y="188" text-anchor="middle" fill="#5a7a8a" font-size="8">input size</text>
  <text x="140" y="201" text-anchor="middle" fill="#5a7a8a" font-size="8">in RAM</text>

  <!-- arrow → ON-RAMP -->
  <line x1="210" y1="164" x2="228" y2="164" stroke="#D4891A" stroke-width="2" marker-end="url(#arrowGold)"/>
  <!-- data label -->
  <text x="219" y="157" text-anchor="middle" fill="#5a7a8a" font-size="7">C objects</text>

  <!-- ON-RAMP -->
  <rect x="230" y="112" width="140" height="104" rx="6" fill="url(#stageGold)" stroke="#D4891A" stroke-width="1.5"/>
  <text x="300" y="136" text-anchor="middle" fill="#D4891A" font-size="10" font-weight="bold">ON-RAMP</text>
  <text x="300" y="149" text-anchor="middle" fill="#8FAAB8" font-size="8">serialise + flatten</text>
  <text x="300" y="165" text-anchor="middle" fill="#e6c070" font-size="12" font-weight="bold">O(C · E / P)</text>
  <text x="300" y="180" text-anchor="middle" fill="#8FAAB8" font-size="8">CPU parallel</text>
  <text x="300" y="193" text-anchor="middle" fill="#5a7a8a" font-size="7">rich objects → flat buffer</text>
  <text x="300" y="206" text-anchor="middle" fill="#5a7a8a" font-size="7">one-time per batch</text>

  <!-- arrow → H2D -->
  <line x1="370" y1="164" x2="388" y2="164" stroke="#5ab8d8" stroke-width="2" marker-end="url(#arrowBlue)"/>
  <text x="379" y="157" text-anchor="middle" fill="#5a7a8a" font-size="7">C rows</text>

  <!-- H2D -->
  <rect x="390" y="112" width="140" height="104" rx="6" fill="url(#stageBlue)" stroke="#5ab8d8" stroke-width="1.5"/>
  <text x="460" y="136" text-anchor="middle" fill="#5ab8d8" font-size="10" font-weight="bold">H2D COPY</text>
  <text x="460" y="149" text-anchor="middle" fill="#8FAAB8" font-size="8">host → device</text>
  <text x="460" y="165" text-anchor="middle" fill="#e6c070" font-size="12" font-weight="bold">O(C)</text>
  <text x="460" y="180" text-anchor="middle" fill="#8FAAB8" font-size="8">bandwidth-bound</text>
  <text x="460" y="193" text-anchor="middle" fill="#5a7a8a" font-size="7">RAM → VRAM</text>
  <text x="460" y="206" text-anchor="middle" fill="#5a7a8a" font-size="7">PCIe ~13 GB/s</text>

  <!-- arrow → KERNEL -->
  <line x1="530" y1="164" x2="548" y2="164" stroke="#3aaa8a" stroke-width="2" marker-end="url(#arrowTeal)"/>
  <text x="539" y="157" text-anchor="middle" fill="#5a7a8a" font-size="7">C×fields</text>

  <!-- GPU KERNEL (tall, both rows use same box) -->
  <rect x="550" y="92" width="180" height="230" rx="8" fill="url(#stageTeal)" stroke="#3aaa8a" stroke-width="2" filter="url(#glowSoft)"/>
  <text x="640" y="118" text-anchor="middle" fill="#3aaa8a" font-size="11" font-weight="bold" letter-spacing="1">GPU KERNEL</text>
  <text x="640" y="133" text-anchor="middle" fill="#8FAAB8" font-size="8">C·S threads in parallel</text>
  <!-- formula big -->
  <text x="640" y="158" text-anchor="middle" fill="#e6c070" font-size="11" font-weight="bold">O(C·S·T·R / G)</text>
  <text x="640" y="172" text-anchor="middle" fill="#5aaa7a" font-size="8">+ k_launch  (fixed ~1 ms)</text>
  <!-- mini thread dots -->
  <g fill="#3aaa8a" opacity="0.5">
    <rect x="568" y="184" width="5" height="5" rx="1"/><rect x="576" y="184" width="5" height="5" rx="1"/><rect x="584" y="184" width="5" height="5" rx="1"/><rect x="592" y="184" width="5" height="5" rx="1"/><rect x="600" y="184" width="5" height="5" rx="1"/><rect x="608" y="184" width="5" height="5" rx="1"/><rect x="616" y="184" width="5" height="5" rx="1"/><rect x="624" y="184" width="5" height="5" rx="1"/>
    <rect x="568" y="193" width="5" height="5" rx="1"/><rect x="576" y="193" width="5" height="5" rx="1"/><rect x="584" y="193" width="5" height="5" rx="1"/><rect x="592" y="193" width="5" height="5" rx="1"/><rect x="600" y="193" width="5" height="5" rx="1"/><rect x="608" y="193" width="5" height="5" rx="1"/><rect x="616" y="193" width="5" height="5" rx="1"/><rect x="624" y="193" width="5" height="5" rx="1"/>
    <rect x="632" y="184" width="5" height="5" rx="1"/><rect x="640" y="184" width="5" height="5" rx="1"/><rect x="648" y="184" width="5" height="5" rx="1"/><rect x="656" y="184" width="5" height="5" rx="1"/><rect x="664" y="184" width="5" height="5" rx="1"/><rect x="672" y="184" width="5" height="5" rx="1"/><rect x="680" y="184" width="5" height="5" rx="1"/><rect x="688" y="184" width="5" height="5" rx="1"/>
    <rect x="632" y="193" width="5" height="5" rx="1"/><rect x="640" y="193" width="5" height="5" rx="1"/><rect x="648" y="193" width="5" height="5" rx="1"/><rect x="656" y="193" width="5" height="5" rx="1"/><rect x="664" y="193" width="5" height="5" rx="1"/><rect x="672" y="193" width="5" height="5" rx="1"/><rect x="680" y="193" width="5" height="5" rx="1"/><rect x="688" y="193" width="5" height="5" rx="1"/>
  </g>
  <text x="640" y="212" text-anchor="middle" fill="#3aaa8a" font-size="8">one thread per (c, s)</text>
  <!-- inner loop annotation -->
  <rect x="562" y="220" width="156" height="44" rx="4" fill="#0e2010" stroke="#2a7050" stroke-width="0.8"/>
  <text x="640" y="234" text-anchor="middle" fill="#5aaa7a" font-size="8">each thread: O(T · R)</text>
  <text x="640" y="246" text-anchor="middle" fill="#4a9060" font-size="8">for t=0..T: apply R risk factors</text>
  <text x="640" y="258" text-anchor="middle" fill="#4a9060" font-size="8">compute event → discount to PV</text>
  <!-- output labels for two paths -->
  <text x="640" y="292" text-anchor="middle" fill="#8FAAB8" font-size="8">C × S result floats</text>
  <text x="640" y="304" text-anchor="middle" fill="#5a7a8a" font-size="8">(stays in VRAM)</text>

  <!-- COMPUTE PATH: arrow → DEVICE SINK -->
  <line x1="730" y1="164" x2="748" y2="164" stroke="#3aaa8a" stroke-width="2" marker-end="url(#arrowTeal)"/>
  <text x="739" y="157" text-anchor="middle" fill="#5a7a8a" font-size="7">C·S floats</text>

  <!-- DEVICE SINK -->
  <rect x="750" y="112" width="150" height="104" rx="6" fill="url(#stageTeal)" stroke="#3aaa8a" stroke-width="1.5"/>
  <text x="825" y="136" text-anchor="middle" fill="#3aaa8a" font-size="10" font-weight="bold">DEVICE SINK</text>
  <text x="825" y="149" text-anchor="middle" fill="#8FAAB8" font-size="8">on-device aggregation</text>
  <text x="825" y="165" text-anchor="middle" fill="#e6c070" font-size="12" font-weight="bold">O(C·S / G)</text>
  <text x="825" y="180" text-anchor="middle" fill="#8FAAB8" font-size="8">parallel reduction</text>
  <text x="825" y="193" text-anchor="middle" fill="#5a7a8a" font-size="7">no PCIe roundtrip</text>
  <text x="825" y="206" text-anchor="middle" fill="#3aaa8a" font-size="7">✓ preferred pattern</text>

  <!-- output -->
  <line x1="900" y1="164" x2="918" y2="164" stroke="#3aaa8a" stroke-width="1.5" marker-end="url(#arrowTeal)"/>

  <!-- RESULT BOX compute path -->
  <rect x="920" y="122" width="160" height="84" rx="6" fill="#1a3028" stroke="#3aaa8a" stroke-width="1.5" filter="url(#glowSoft)"/>
  <text x="1000" y="145" text-anchor="middle" fill="#3aaa8a" font-size="10" font-weight="bold">SCALARS ONLY</text>
  <text x="1000" y="159" text-anchor="middle" fill="#8FAAB8" font-size="8">mean PV, VaR, ES</text>
  <text x="1000" y="173" text-anchor="middle" fill="#e6c070" font-size="11" font-weight="bold">O(1) transfer</text>
  <text x="1000" y="188" text-anchor="middle" fill="#5a7a8a" font-size="8">summary stays on device</text>
  <text x="1000" y="198" text-anchor="middle" fill="#3aaa8a" font-size="8">≪ 1 KB returned</text>

  <!-- ═══════════════════════════════════════════════════════════════════
       FULL PATH ROW  y=320 to 424  (centre y=372)
       ═══════════════════════════════════════════════════════════════════ -->

  <!-- Shared: Portfolio → On-ramp → H2D (mirror of compute path, dimmed) -->
  <rect x="70" y="320" width="140" height="104" rx="6" fill="#1e2e40" stroke="#3a4f60" stroke-width="1" opacity="0.7"/>
  <text x="140" y="347" text-anchor="middle" fill="#8FAAB8" font-size="10" font-weight="bold">PORTFOLIO</text>
  <text x="140" y="361" text-anchor="middle" fill="#8FAAB8" font-size="9">C contracts</text>
  <text x="140" y="381" text-anchor="middle" fill="#e6c070" font-size="12" font-weight="bold">O(C)</text>
  <text x="140" y="395" text-anchor="middle" fill="#5a7a8a" font-size="8">same input</text>

  <line x1="210" y1="372" x2="228" y2="372" stroke="#5ab8d8" stroke-width="1.5" marker-end="url(#arrowBlue)"/>

  <rect x="230" y="320" width="140" height="104" rx="6" fill="url(#stageGold)" stroke="#D4891A" stroke-width="1" opacity="0.7"/>
  <text x="300" y="343" text-anchor="middle" fill="#D4891A" font-size="10" font-weight="bold">ON-RAMP</text>
  <text x="300" y="357" text-anchor="middle" fill="#e6c070" font-size="12" font-weight="bold">O(C · E / P)</text>
  <text x="300" y="373" text-anchor="middle" fill="#8FAAB8" font-size="8">same as compute path</text>

  <line x1="370" y1="372" x2="388" y2="372" stroke="#5ab8d8" stroke-width="1.5" marker-end="url(#arrowBlue)"/>

  <rect x="390" y="320" width="140" height="104" rx="6" fill="url(#stageBlue)" stroke="#5ab8d8" stroke-width="1" opacity="0.7"/>
  <text x="460" y="343" text-anchor="middle" fill="#5ab8d8" font-size="10" font-weight="bold">H2D COPY</text>
  <text x="460" y="357" text-anchor="middle" fill="#e6c070" font-size="12" font-weight="bold">O(C)</text>
  <text x="460" y="373" text-anchor="middle" fill="#8FAAB8" font-size="8">bandwidth-bound</text>

  <line x1="530" y1="372" x2="548" y2="372" stroke="#3aaa8a" stroke-width="1.5" marker-end="url(#arrowTeal)"/>

  <!-- Kernel shared — dashed reference line from compute kernel -->
  <line x1="640" y1="322" x2="640" y2="345" stroke="#2a7050" stroke-width="1.5" stroke-dasharray="4,3"/>
  <rect x="550" y="320" width="180" height="104" rx="8" fill="url(#stageTeal)" stroke="#3aaa8a" stroke-width="1" opacity="0.6"/>
  <text x="640" y="345" text-anchor="middle" fill="#3aaa8a" font-size="10" font-weight="bold">GPU KERNEL</text>
  <text x="640" y="359" text-anchor="middle" fill="#e6c070" font-size="11" font-weight="bold">O(C·S·T·R / G)</text>
  <text x="640" y="375" text-anchor="middle" fill="#8FAAB8" font-size="8">same computation</text>
  <text x="640" y="389" text-anchor="middle" fill="#8FAAB8" font-size="8">C·S result floats in VRAM</text>

  <!-- Full path: arrow → D2H (RED — expensive) -->
  <line x1="730" y1="372" x2="748" y2="372" stroke="#e04040" stroke-width="2.5" marker-end="url(#arrowRed)"/>
  <text x="739" y="364" text-anchor="middle" fill="#e04040" font-size="7">C·S floats</text>

  <!-- D2H (RED, PROMINENT) -->
  <rect x="750" y="312" width="150" height="120" rx="6" fill="url(#stageRed)" stroke="#e04040" stroke-width="2" filter="url(#glowSoft)"/>
  <text x="825" y="336" text-anchor="middle" fill="#e06060" font-size="10" font-weight="bold">D2H COPY  ⚠</text>
  <text x="825" y="349" text-anchor="middle" fill="#8FAAB8" font-size="8">device → host</text>
  <text x="825" y="365" text-anchor="middle" fill="#e6c070" font-size="12" font-weight="bold">O(C · S)</text>
  <text x="825" y="380" text-anchor="middle" fill="#e06060" font-size="8">bandwidth-bound</text>
  <text x="825" y="393" text-anchor="middle" fill="#5a7a8a" font-size="7">VRAM → RAM · PCIe</text>
  <text x="825" y="407" text-anchor="middle" fill="#e04040" font-size="7">dominates full-path total!</text>
  <text x="825" y="421" text-anchor="middle" fill="#c04040" font-size="8">+249 ms at C=100k, S=1</text>

  <!-- D2H → CPU SINK -->
  <line x1="900" y1="372" x2="918" y2="372" stroke="#5ab8d8" stroke-width="1.5" marker-end="url(#arrowBlue)"/>

  <!-- CPU SINK -->
  <rect x="920" y="320" width="150" height="104" rx="6" fill="url(#stageBlue)" stroke="#5ab8d8" stroke-width="1.5"/>
  <text x="995" y="344" text-anchor="middle" fill="#5ab8d8" font-size="10" font-weight="bold">CPU SINK</text>
  <text x="995" y="357" text-anchor="middle" fill="#8FAAB8" font-size="8">aggregate on host</text>
  <text x="995" y="373" text-anchor="middle" fill="#e6c070" font-size="12" font-weight="bold">O(C·S / P)</text>
  <text x="995" y="388" text-anchor="middle" fill="#8FAAB8" font-size="8">parallel reduce</text>
  <text x="995" y="401" text-anchor="middle" fill="#5a7a8a" font-size="7">negligible vs D2H</text>
  <text x="995" y="414" text-anchor="middle" fill="#5a7a8a" font-size="7">but uses RAM bandwidth</text>

  <!-- RESULT BOX full path -->
  <line x1="1070" y1="372" x2="1088" y2="372" stroke="#5ab8d8" stroke-width="1.5" marker-end="url(#arrowBlue)"/>
  <rect x="1090" y="330" width="160" height="84" rx="6" fill="#1a2038" stroke="#5ab8d8" stroke-width="1.5"/>
  <text x="1170" y="354" text-anchor="middle" fill="#5ab8d8" font-size="10" font-weight="bold">FULL ARRAY</text>
  <text x="1170" y="368" text-anchor="middle" fill="#8FAAB8" font-size="8">C × S floats in RAM</text>
  <text x="1170" y="382" text-anchor="middle" fill="#e6c070" font-size="11" font-weight="bold">O(C · S) memory</text>
  <text x="1170" y="398" text-anchor="middle" fill="#e04040" font-size="8">⚠ avoid when possible</text>
  <text x="1170" y="408" text-anchor="middle" fill="#5a7a8a" font-size="7">only when per-contract needed</text>

  <!-- ═══════════════════════════════════════════════════════════════════
       TOTAL COMPLEXITY SUMMARY BAR
       ═══════════════════════════════════════════════════════════════════ -->
  <line x1="30" y1="450" x2="1270" y2="450" stroke="#D4891A" stroke-width="0.8" opacity="0.35"/>

  <rect x="30" y="458" width="1240" height="72" rx="6" fill="#1e2830" stroke="#3a4f60" stroke-width="1"/>

  <!-- Compute path total -->
  <rect x="50" y="468" width="370" height="52" rx="4" fill="#1a3028" stroke="#3aaa8a" stroke-width="1.2"/>
  <text x="235" y="486" text-anchor="middle" fill="#3aaa8a" font-size="10" font-weight="bold">COMPUTE PATH TOTAL</text>
  <text x="235" y="503" text-anchor="middle" fill="#e6c070" font-size="13" font-weight="bold">O(C · S · T · R / G)  +  O(C)</text>
  <text x="235" y="514" text-anchor="middle" fill="#5aaa7a" font-size="8">kernel dominates at scale · D2H-free · latency driven by compute</text>

  <!-- Full path total -->
  <rect x="450" y="468" width="370" height="52" rx="4" fill="#2a1818" stroke="#e04040" stroke-width="1.2"/>
  <text x="635" y="486" text-anchor="middle" fill="#e06060" font-size="10" font-weight="bold">FULL PATH TOTAL</text>
  <text x="635" y="503" text-anchor="middle" fill="#e6c070" font-size="13" font-weight="bold">O(C · S)  [D2H dominates]</text>
  <text x="635" y="514" text-anchor="middle" fill="#e06060" font-size="8">PCIe bandwidth is the bottleneck — kernel cost hidden behind D2H</text>

  <!-- CPU baseline total -->
  <rect x="850" y="468" width="390" height="52" rx="4" fill="#1e2838" stroke="#5ab8d8" stroke-width="1.2"/>
  <text x="1045" y="486" text-anchor="middle" fill="#5ab8d8" font-size="10" font-weight="bold">CPU BASELINE TOTAL</text>
  <text x="1045" y="503" text-anchor="middle" fill="#e6c070" font-size="13" font-weight="bold">O(C · S · T · R / P)</text>
  <text x="1045" y="514" text-anchor="middle" fill="#5a9ab8" font-size="8">compute dominates · no transfer cost · predictable linear scaling</text>
</svg>
